<svg width="470" height="304" viewBox="0 0 470 304" fill="none" xmlns="http://www.w3.org/2000/svg">
<path opacity="0.1" d="M139.775 1.19037C212.524 -3.29458 288.796 20.0652 277.586 53.9262C266.375 87.7872 337.526 41.8989 365.925 54.1077C386.141 62.7993 378.06 89.2597 387.839 99.9216C410.265 124.362 433.198 93.5839 461.733 112.054C490.269 130.525 431.843 302.911 402.027 303.874L61.9808 301.686L37.5777 299.356C37.5777 299.356 -29.9246 260.136 18.3627 223.962C51.0124 199.501 27.5204 181.741 23.9689 170.542C19.892 157.685 10.378 135.233 51.8275 118.753C93.277 102.274 82.5754 66.4218 81.5554 58.997C80.5353 51.5722 67.0339 5.6736 139.775 1.19037Z" fill="#9BC1F9"/>
</svg>
